# xmcd
#
# Track frame offsets:
#	150
#	17970
#	35662
#	51975
#	76620
#	100232
#	129362
#	147290
#	165235
#	184800
#	198765
#
# Disc length: 2904 seconds
#
# Revision: 1
# Processed by: cddbd v1.5.2PL0 Copyright (c) Steve Scherf et al.
# Submitted via: audiograbber 1.83.01
#
DISCID=880b560b
DTITLE=GW Toye and The Blues All Stars - Livin' With The Truth
DYEAR=2012
DGENRE=Blues
TTITLE0=Feet First
TTITLE1=She Said No
TTITLE2=Hard Time
TTITLE3=Rainy Day Blues
TTITLE4=Susquehanna
TTITLE5=Livin' With the Truth
TTITLE6=Alligator Man
TTITLE7=Love You Too Much
TTITLE8=One Eyed Jack
TTITLE9=Sinful
TTITLE10=Detonator
EXTD=
EXTT0=
EXTT1=
EXTT2=
EXTT3=
EXTT4=
EXTT5=
EXTT6=
EXTT7=
EXTT8=
EXTT9=
EXTT10=
PLAYORDER=
